<svg xmlns="http://www.w3.org/2000/svg" xmlns:xlink="http://www.w3.org/1999/xlink" version="1.1" id="Layer_3" x="0px" y="0px" viewBox="0 0 292.8 36.7" enable-background="new 0 0 292.8 36.7" xml:space="preserve"><g style="fill: url('#MyGradient')" id="logo"><g id="crown"><path d="M23.9 0C10.7 0 0 8.2 0 18.3c0 10.1 10.7 18.3 23.9 18.3c13.2 0 23.9-8.2 23.9-18.3 C47.8 8.2 37.1 0 23.9 0z M23.9 35.4c-12.5 0-22.7-7.7-22.7-17.1S11.4 1.2 23.9 1.2c12.5 0 22.7 7.7 22.7 17.1 S36.4 35.4 23.9 35.4z"/><path  d="M42.6 11.8c-0.5-0.3-3 1.6-3.8 2.4c-2.1 1.9-3.5 3.4-5.5 5.4c-1-0.4-2-0.6-3-0.7 c2.7-5.1 6.1-10.4 6.1-10.5c0-0.1 0-0.2-0.1-0.2c-0.1-0.1-0.2 0-0.2 0c0 0 0 0 0 0.1c-0.4 0.1-5.2 6.2-8.8 10.5 c-1.9 0.1-3.3 0.4-3.7 0.5c-0.4-0.1-1.8-0.4-3.7-0.5c-3.6-4.3-8.4-10.4-8.8-10.5c0 0 0 0 0-0.1c0-0.1-0.2-0.1-0.2 0 c-0.1 0-0.1 0.2 0 0.2c0.1 0.1 3.5 5.4 6.1 10.5c-1 0.1-2 0.3-3 0.7c-2-2-3.4-3.5-5.5-5.4c-0.8-0.7-3.3-2.6-3.8-2.4 C4.3 12 4.9 12.2 5 12.3c0.4 0.2 0.7 0.3 0.9 0.6c1.6 1.4 2.9 3.1 4.2 4.8c0.7 0.9 1.3 1.9 1.9 2.8c-0.7 0.4-1.5 1-2.1 1.6 c-1.7 1.8-2.4 3.4-2.1 4.7C8 27.5 8.5 28 9.1 28.4c-0.1 0-0.1-0.1-0.1-0.1c2.7 2 5.7 1.8 8.3 0.9h0.1v0c1.4-0.5 2.6-1.2 3.7-1.8 c0.7 0.8 2.4 2.5 2.7 2.8v0c0 0 0 0 0 0c0 0 0 0 0 0v0c0.3-0.3 1.9-2 2.7-2.8c1 0.7 2.3 1.3 3.7 1.8v0h0.1 c2.6 0.9 5.6 1.1 8.3-0.9c0 0 0 0-0.1 0.1c0.5-0.4 1-0.9 1.2-1.6c0.4-1.3-0.3-2.9-2.1-4.7c-0.7-0.7-1.4-1.2-2.1-1.6 c0.6-1 1.2-1.9 1.9-2.8c1.3-1.7 2.6-3.4 4.2-4.8c0.3-0.3 0.6-0.4 0.9-0.6C42.4 12.2 43 12 42.6 11.8z M33.1 19.8 c-1.3 1.3-2.7 2.7-4.3 4.3c-0.2-0.3-0.4-0.6-0.6-0.9c0.5-1.3 1.2-2.6 1.9-4.1C31.1 19.3 32.1 19.4 33.1 19.8z M28.6 24.3 c-0.4 0.4-0.9 0.9-1.3 1.3c0.2-0.6 0.4-1.3 0.7-2.1C28.3 23.8 28.4 24 28.6 24.3z M34.5 10.8c-1.3 2.1-3 5.1-4.6 8 c-0.5 0-0.9-0.1-1.4-0.1C30.6 16 32.9 13 34.5 10.8z M28.3 19c0.5 0 0.9 0 1.4 0.1c-0.7 1.3-1.3 2.6-1.8 3.8 c-0.5-0.5-0.9-1-1.4-1.5C27.1 20.7 27.7 19.9 28.3 19z M27.1 19.1c-0.5 0.6-1 1.2-1.4 1.7c-0.8-0.6-1.6-1-1.8-1.2 C24.3 19.5 25.5 19.2 27.1 19.1z M25.5 21c-1 1.2-1.7 2-1.8 2.2c-0.2-0.2-0.8-1-1.8-2.2c0.9-0.7 1.6-1.1 1.8-1.2 C23.9 19.9 24.6 20.3 25.5 21z M23.5 19.6c-0.3 0.2-1 0.6-1.8 1.2c-0.4-0.5-0.9-1.1-1.4-1.7C21.8 19.2 23 19.5 23.5 19.6z M20.8 21.5c-0.5 0.4-1 0.9-1.4 1.5c-0.5-1.2-1.1-2.5-1.8-3.8c0.5 0 1-0.1 1.4-0.1C19.6 19.9 20.2 20.7 20.8 21.5z M20 25.7 c-0.4-0.4-0.9-0.9-1.3-1.3c0.2-0.3 0.4-0.5 0.5-0.8C19.6 24.3 19.8 25 20 25.7z M12.8 10.8c1.5 2.1 3.9 5.1 5.9 7.9 c-0.4 0-0.9 0-1.4 0.1C15.9 15.9 14.1 12.9 12.8 10.8z M17.2 19.1c0.7 1.4 1.4 2.8 1.9 4.1c-0.2 0.3-0.4 0.6-0.6 0.9 c-1.5-1.6-3-3-4.3-4.3C15.2 19.4 16.2 19.3 17.2 19.1z M11.1 17.3c0.7 0.7 1.5 1.5 2.5 2.4c-0.2 0.1-0.4 0.1-0.5 0.2 C12.4 19.1 11.8 18.2 11.1 17.3z M15.5 28.9c-0.6-0.6-2.6-2.8-3.8-3.2c0 0 2.4 2.2 2.8 3.4c-2.4 0.4-3.8-0.3-3.8-0.3 c0 0-2.1-0.6-2.5-2.2c-0.3-1.2 0.3-2.7 2-4.4c0.6-0.7 1.3-1.2 2.1-1.6c1.4 2.3 2.7 5 3.8 8.1C15.8 28.9 15.6 28.9 15.5 28.9z M17.1 28.4C17 28.4 17 28.5 17.1 28.4c-0.3-0.7-1.4-4.3-3.9-8.2c0.2-0.1 0.4-0.2 0.6-0.2c1.3 1.3 2.8 2.8 4.5 4.6 C17.6 25.6 17.2 26.9 17.1 28.4z M17.8 28.1c-0.1 0.1-0.3 0.1-0.4 0.2c0.1-1.4 0.5-2.5 1.1-3.6c0.5 0.5 1.1 1.1 1.6 1.7 C19.3 27.1 18.5 27.7 17.8 28.1z M20.4 26.1c-0.2-0.8-0.5-1.8-1-2.9c0.5-0.6 1-1.1 1.5-1.5c0.6 0.8 1.1 1.5 1.5 2.1 C21.8 24.7 21.1 25.5 20.4 26.1z M23.7 29.5c-0.8-0.9-1.5-1.5-2.3-2.4c1.2-0.8 2.1-1.6 2.3-1.7c0.2 0.2 1 0.9 2.3 1.7 C25.1 27.9 24.5 28.6 23.7 29.5z M24.8 23.8c0.4-0.6 1-1.3 1.5-2.1c0.5 0.4 1 1 1.5 1.5c-0.5 1.1-0.8 2.1-1 2.9 C26.2 25.5 25.5 24.7 24.8 23.8z M29.5 28.1c-0.8-0.4-1.5-1-2.3-1.7c0.6-0.6 1.1-1.2 1.6-1.7c0.6 1 1 2.2 1.1 3.6 C29.8 28.3 29.7 28.2 29.5 28.1z M30.3 28.4c-0.1-1.5-0.6-2.8-1.2-3.9c1.7-1.8 3.2-3.3 4.5-4.6c0.2 0.1 0.4 0.2 0.6 0.2 C31.7 24.1 30.5 27.8 30.3 28.4C30.3 28.5 30.3 28.4 30.3 28.4z M37.2 22.3c1.7 1.7 2.3 3.2 2 4.4c-0.4 1.6-2.5 2.1-2.5 2.2 c0 0-1.5 0.7-3.8 0.3c0.4-1.2 2.8-3.4 2.8-3.4c-1.2 0.4-3.3 2.6-3.8 3.2c-0.2 0-0.3-0.1-0.5-0.1c1.1-3.2 2.4-5.9 3.8-8.1 C35.8 21.1 36.5 21.6 37.2 22.3z M34.3 20c-0.2-0.1-0.4-0.1-0.5-0.2c0.9-0.9 1.7-1.7 2.5-2.4C35.5 18.2 34.9 19.1 34.3 20z"/></g><g id="czardom"><g><path  d="M72.5 35.1c-9.2 0-16.6-7.4-16.6-16.6c0-9.2 7.4-16.6 16.6-16.6c6.7 0 12.5 4 15.1 9.7h1.7 C86.6 5 80 0.3 72.5 0.3c-10 0-18.2 8.2-18.2 18.2c0 10 8.2 18.2 18.2 18.2c7.6 0 14.1-4.7 16.8-11.4h-1.7 C85 31 79.2 35.1 72.5 35.1z"/><polygon  points="120.1,2.1 120.1,2 120.2,2 120.1,2 120.1,0.4 94.6,0.4 94.6,2.1 118.2,2.1 94.6,34.7 94.7,34.8 94.6,34.8 94.6,36.4 120.1,36.4 120.1,34.8 96.5,34.8 120.1,2.1"/><g><polygon  points="154.9,36.5 139.9,3.7 125.8,36.5 124.2,36.5 139.9,0 156.5,36.5"/></g><g><rect x="130.8" y="23.3"  width="18.8" height="1.6"/></g></g><path  d="M176.4 18.8C176.4 18.8 176.4 18.8 176.4 18.8c1.7-0.3 3.3-1.2 4.5-2.3c1.2-1.1 2.1-2.6 2.6-4.2 c0.3-0.9 0.4-1.9 0.4-2.8c0-3.5-2.1-7.2-5.3-8.6c-2.4-1.1-5.2-0.7-7.8-0.7c-2.4 0-4.8 0-7.2 0c-0.5 0-1 0-1.6 0l-1.6 0v36.4h1.6 V19.9l19.9 16.7l2 0l-20.7-17.8c0.5 0 0.9 0 1.4 0c1.1 0 2.2 0 3.3 0c1.3 0 2.6 0 3.9 0c1.1 0 2.2 0 3.2 0c0.3 0 0.7 0 1 0 C176.2 18.8 176.2 18.8 176.4 18.8z M176.3 1.9c0.8 0.1 1.6 0.4 2.3 0.9c1.4 0.9 2.6 2.3 3.1 3.9c0.3 0.9 0.5 1.9 0.5 2.8 c0 2.9-1.8 5.7-4.4 7.1c-1.1 0.6-2.8 0.5-4.1 0.5c-1.2 0-11.8 0-11.8 0c0 0 0-15.3 0-15.3c3.7 0 7.5 0.1 11.2 0 C174.3 1.8 175.3 1.8 176.3 1.9z"/><g><path  d="M237.4 36.7c-10.1 0-18.2-8.2-18.2-18.2c0-10.1 8.2-18.2 18.2-18.2c10.1 0 18.2 8.2 18.2 18.2 C255.6 28.5 247.4 36.7 237.4 36.7z M237.4 1.7c-9.2 0-16.7 7.5-16.7 16.7c0 9.2 7.5 16.7 16.7 16.7c9.2 0 16.7-7.5 16.7-16.7 C254.1 9.2 246.6 1.7 237.4 1.7z"/></g><path  d="M200.9 0.2L200.9 0.2L200.9 0.2C200.8 0.2 200.8 0.2 200.9 0.2L200.9 0.2l-12.5 0v0h-1.6v36.4h1.1h0.5 h12.4v0c9.1-1.1 16.2-8.8 16.2-18.2C217 9.1 209.9 1.4 200.9 0.2z M200.9 35L200.9 35l-12.5 0V1.8h12.4v0 c8.2 1.1 14.6 8.1 14.6 16.6C215.4 26.8 209.1 33.8 200.9 35z"/><polygon  points="291.2,0.3 291.2,0.3 291.2,0.3 275.8,34.8 260.5,0.3 260.4,0.4 260.4,0.3 258.8,0.3 258.8,36.5 260.4,36.5 260.4,3.9 275,36.5 276.7,36.5 291.2,4.1 291.2,36.5 292.8,36.5 292.8,0.3"/></g></g>
<defs>
    <linearGradient id="MyGradient" gradientUnits="userSpaceOnUse">
      <stop offset="0%" stop-color="#d1b584" />
      <stop offset="35%" stop-color="#EDCA7D" />
      <stop offset="60%" stop-color="#dbbc83" />
      <stop offset="100%" stop-color="#bc9f6b" />
    </linearGradient>
  </defs>
</svg>
