<?xml version="1.0" encoding="UTF-8" standalone="no"?>
<svg viewBox="0 0 239 117" version="1.1" xmlns="http://www.w3.org/2000/svg" xmlns:xlink="http://www.w3.org/1999/xlink" xmlns:sketch="http://www.bohemiancoding.com/sketch/ns">
    <!-- Generator: Sketch 3.3.2 (12043) - http://www.bohemiancoding.com/sketch -->
    <title>logo.svg</title>
    <desc>Created with Sketch.</desc>
    <defs></defs>
    <g id="Page-1" stroke="none" stroke-width="1" fill="none" fill-rule="evenodd" sketch:type="MSPage">
        <g id="logo.svg" sketch:type="MSLayerGroup" fill="#000000">
            <g id="czardom" transform="translate(0.000000, 80.000000)" sketch:type="MSShapeGroup">
                <path d="M18.39,35.25 C9.236,35.25 1.789,27.802 1.789,18.647 C1.789,9.494 9.235,2.048 18.39,2.048 C25.079,2.048 30.843,6.031 33.468,11.747 L35.202,11.747 C32.478,5.136 25.973,0.465 18.391,0.465 C8.365,0.465 0.208,8.62 0.208,18.647 C0.208,28.674 8.365,36.831 18.391,36.831 C26.009,36.831 32.541,32.111 35.24,25.447 L33.517,25.447 C30.912,31.217 25.119,35.25 18.39,35.25 L18.39,35.25 Z" id="Shape"></path>
                <path d="M66.07,2.23 L66.07,2.195 L66.102,2.153 L66.07,2.132 L66.07,0.613 L40.512,0.613 L40.512,2.23 L64.082,2.23 L40.534,34.92 L40.594,34.964 L40.512,34.964 L40.512,36.58 L66.07,36.58 L66.07,34.964 L42.463,34.964 L66.045,2.23 L66.07,2.23 Z" id="Shape"></path>
                <path d="M100.866,36.712 L85.863,3.897 L71.713,36.712 L70.132,36.706 L85.826,0.172 L102.416,36.706 L100.866,36.712 Z" id="Shape"></path>
                <rect id="Rectangle-path" x="76.754" y="23.514" width="18.841" height="1.581"></rect>
                <path d="M122.291,18.96 C122.32,18.956 122.349,18.952 122.387,18.943 C123.977,18.631 125.639,17.735 126.807,16.625 C127.999,15.497 128.947,14.045 129.399,12.459 C129.652,11.573 129.827,10.568 129.827,9.644 C129.827,6.165 127.728,2.494 124.483,1.05 C122.078,-0.017 119.259,0.334 116.709,0.31 C114.321,0.289 111.928,0.324 109.54,0.34 C109.019,0.344 108.495,0.326 107.976,0.33 L106.394,0.344 L106.394,36.726 L107.976,36.726 L107.976,20.073 L127.835,36.743 L129.807,36.722 L109.119,18.97 L110.484,18.97 C111.569,18.972 112.657,18.973 113.742,18.97 C115.042,18.964 116.342,18.964 117.642,18.967 C118.725,18.967 119.807,18.96 120.891,18.97 C121.219,18.976 121.553,18.98 121.882,18.976 C122.106,18.971 122.159,18.979 122.291,18.96 L122.291,18.96 Z M122.271,2.119 C123.083,2.251 123.869,2.508 124.605,2.975 C126,3.867 127.158,5.275 127.716,6.836 C128.025,7.695 128.246,8.726 128.246,9.643 C128.246,12.59 126.439,15.319 123.85,16.76 C122.799,17.345 121.071,17.308 119.75,17.308 C118.594,17.308 107.973,17.308 107.973,17.296 L107.973,2.002 C111.701,2.002 115.459,2.148 119.183,2.013 C120.226,1.977 121.268,1.953 122.271,2.119 L122.271,2.119 Z" id="Shape"></path>
                <path d="M183.3,36.824 C173.239,36.824 165.054,28.638 165.054,18.575 C165.054,8.514 173.238,0.329 183.3,0.329 C193.362,0.329 201.547,8.515 201.547,18.575 C201.547,28.639 193.361,36.824 183.3,36.824 L183.3,36.824 Z M183.3,1.894 C174.104,1.894 166.618,9.378 166.618,18.576 C166.618,27.777 174.103,35.261 183.3,35.261 C192.499,35.261 199.985,27.778 199.985,18.576 C199.984,9.378 192.499,1.894 183.3,1.894 L183.3,1.894 Z" id="Shape"></path>
                <path d="M146.812,0.399 L146.812,0.386 L146.74,0.386 C146.73,0.385 146.722,0.383 146.713,0.382 L146.713,0.386 L134.264,0.386 L134.264,0.35 L132.682,0.35 L132.682,36.712 L133.77,36.712 L134.264,36.712 L146.713,36.712 L146.713,36.746 C155.802,35.646 162.875,27.918 162.875,18.564 C162.875,9.244 155.854,1.542 146.812,0.399 L146.812,0.399 Z M146.812,35.14 L146.812,35.132 L134.263,35.132 L134.263,1.967 L146.712,1.967 L146.712,1.97 C154.932,3.06 161.297,10.076 161.297,18.565 C161.298,27.016 154.984,34.008 146.812,35.14 L146.812,35.14 Z" id="Shape"></path>
                <path d="M237.126,0.449 L237.126,0.498 L237.083,0.479 L221.755,34.986 L206.428,0.479 L206.298,0.538 L206.298,0.449 L204.717,0.449 L204.717,36.712 L206.298,36.712 L206.298,4.082 L220.891,36.699 L222.619,36.679 L237.126,4.277 L237.126,36.712 L238.707,36.712 L238.707,0.449 L237.126,0.449 Z" id="Shape"></path>
            </g>
            <g id="crown" transform="translate(72.000000, 0.000000)" sketch:type="MSShapeGroup">
                <path d="M48.145,0.17 C21.916,0.17 0.576,16.522 0.576,36.622 C0.576,56.721 21.916,73.057 48.145,73.057 C74.374,73.057 95.713,56.721 95.713,36.622 C95.713,16.522 74.373,0.17 48.145,0.17 L48.145,0.17 Z M48.145,70.631 C23.254,70.631 3.003,55.383 3.003,36.622 C3.003,17.861 23.254,2.599 48.145,2.599 C73.035,2.599 93.286,17.861 93.286,36.622 C93.286,55.383 73.034,70.631 48.145,70.631 L48.145,70.631 Z" id="Shape"></path>
                <path d="M85.458,23.69 C84.42,23.12 79.557,26.905 77.89,28.385 C73.704,32.108 70.855,35.13 66.891,39.09 C64.872,38.385 62.819,37.992 60.833,37.774 C66.163,27.613 72.932,17.026 73.037,16.86 C73.135,16.706 73.091,16.502 72.937,16.403 C72.783,16.303 72.581,16.351 72.481,16.502 C72.466,16.524 72.438,16.571 72.411,16.614 C71.639,16.881 62.072,29.044 54.936,37.583 C51.195,37.771 48.37,38.431 47.662,38.607 C46.954,38.431 44.131,37.771 40.392,37.583 C33.254,29.044 23.687,16.881 22.915,16.614 C22.889,16.571 22.858,16.524 22.843,16.502 C22.745,16.351 22.541,16.303 22.386,16.403 C22.233,16.502 22.189,16.705 22.287,16.86 C22.394,17.027 29.164,27.613 34.494,37.774 C32.505,37.993 30.456,38.386 28.434,39.09 C24.47,35.131 21.623,32.109 17.433,28.385 C15.768,26.905 10.905,23.12 9.867,23.69 C9.098,24.111 10.26,24.436 10.586,24.573 C11.292,24.873 11.89,25.236 12.47,25.738 C15.697,28.528 18.244,31.85 20.778,35.255 C22.12,37.06 23.37,38.951 24.549,40.865 C23.058,41.738 21.631,42.812 20.334,44.15 C16.859,47.733 15.464,50.873 16.187,53.479 C16.588,54.923 17.574,55.95 18.597,56.683 C18.459,56.607 18.382,56.561 18.382,56.561 C23.663,60.538 29.683,60.118 34.891,58.303 L35.049,58.303 L35.049,58.248 C37.779,57.274 40.278,55.923 42.32,54.627 C43.8,56.166 47.032,59.545 47.657,60.192 L47.657,60.205 C47.658,60.204 47.661,60.2 47.661,60.2 C47.664,60.2 47.666,60.203 47.666,60.205 L47.666,60.192 C48.29,59.546 51.522,56.167 53.005,54.627 C55.046,55.922 57.543,57.274 60.274,58.248 L60.274,58.303 L60.435,58.303 C65.642,60.118 71.661,60.537 76.943,56.561 C76.943,56.561 76.864,56.607 76.726,56.683 C77.75,55.951 78.734,54.923 79.135,53.479 C79.86,50.874 78.464,47.733 74.989,44.15 C73.694,42.812 72.267,41.738 70.775,40.865 C71.955,38.95 73.202,37.059 74.544,35.255 C77.08,31.85 79.625,28.528 82.853,25.738 C83.434,25.237 84.034,24.874 84.74,24.573 C85.064,24.436 86.228,24.112 85.458,23.69 L85.458,23.69 Z M66.443,39.536 C63.852,42.131 61.022,45.003 57.948,48.162 C57.552,47.533 57.131,46.951 56.694,46.39 C57.744,43.894 59.089,41.12 60.56,38.294 C62.488,38.502 64.481,38.875 66.443,39.536 L66.443,39.536 Z M57.533,48.588 C56.699,49.446 55.832,50.343 54.963,51.238 C55.304,49.987 55.809,48.554 56.444,46.998 C56.823,47.501 57.188,48.031 57.533,48.588 L57.533,48.588 Z M69.208,21.759 C66.691,25.879 63.16,31.851 60.108,37.689 C59.188,37.608 58.282,37.553 57.406,37.542 C61.529,32.003 66.142,26.035 69.208,21.759 L69.208,21.759 Z M57.006,38.081 C57.918,38.081 58.869,38.135 59.839,38.219 C58.474,40.85 57.222,43.439 56.217,45.802 C55.31,44.709 54.352,43.733 53.413,42.901 C54.529,41.405 55.743,39.777 57.006,38.081 L57.006,38.081 Z M54.45,38.167 C53.454,39.356 52.519,40.477 51.68,41.484 C50,40.216 48.581,39.409 47.999,39.106 C48.873,38.894 51.297,38.371 54.45,38.167 L54.45,38.167 Z M51.319,41.916 C49.345,44.279 47.964,45.941 47.662,46.306 C47.36,45.941 45.979,44.279 44.005,41.916 C45.754,40.596 47.181,39.82 47.662,39.573 C48.145,39.82 49.57,40.597 51.319,41.916 L51.319,41.916 Z M47.328,39.106 C46.746,39.409 45.324,40.217 43.648,41.484 C42.808,40.477 41.871,39.357 40.877,38.167 C44.028,38.371 46.454,38.894 47.328,39.106 L47.328,39.106 Z M41.913,42.901 C40.974,43.732 40.017,44.709 39.109,45.802 C38.103,43.438 36.852,40.849 35.488,38.219 C36.458,38.136 37.41,38.081 38.32,38.081 C39.582,39.777 40.795,41.405 41.913,42.901 L41.913,42.901 Z M40.362,51.238 C39.494,50.343 38.628,49.446 37.792,48.588 C38.136,48.031 38.504,47.502 38.88,46.998 C39.518,48.554 40.021,49.986 40.362,51.238 L40.362,51.238 Z M26.121,21.759 C29.183,26.035 33.797,32.003 37.917,37.542 C37.045,37.554 36.136,37.608 35.215,37.689 C32.166,31.851 28.634,25.879 26.121,21.759 L26.121,21.759 Z M34.767,38.294 C36.236,41.12 37.58,43.894 38.631,46.39 C38.195,46.951 37.773,47.533 37.378,48.162 C34.301,45.003 31.475,42.131 28.881,39.536 C30.844,38.875 32.836,38.502 34.767,38.294 L34.767,38.294 Z M22.594,34.653 C24.041,36.055 25.667,37.661 27.476,39.463 C27.12,39.604 26.763,39.734 26.413,39.895 C25.274,38.148 24.016,36.384 22.594,34.653 L22.594,34.653 Z M31.388,57.805 C30.283,56.63 26.113,52.321 23.776,51.508 C23.776,51.508 28.585,55.808 29.43,58.207 C24.723,58.922 21.867,57.654 21.787,57.619 C21.747,57.607 17.61,56.478 16.733,53.328 C16.068,50.93 17.416,47.975 20.741,44.546 C22.002,43.245 23.385,42.19 24.838,41.34 C27.569,45.841 30.236,51.229 32.389,57.521 C32.054,57.619 31.713,57.724 31.388,57.805 L31.388,57.805 Z M34.525,56.789 C34.483,56.805 34.447,56.816 34.404,56.831 C33.99,55.417 31.717,48.184 26.731,40.379 C27.121,40.202 27.513,40.05 27.909,39.898 C30.499,42.485 33.475,45.502 36.889,49.01 C35.641,51.232 34.724,53.814 34.525,56.789 L34.525,56.789 Z M35.988,56.14 C35.694,56.279 35.398,56.421 35.111,56.544 C35.334,53.846 36.169,51.484 37.298,49.431 C38.347,50.51 39.434,51.631 40.566,52.806 C39.018,54.204 37.482,55.298 35.988,56.14 L35.988,56.14 Z M41.257,52.153 C40.928,50.549 40.26,48.586 39.36,46.406 C40.291,45.25 41.282,44.225 42.254,43.358 C43.43,44.936 44.479,46.34 45.337,47.488 C43.977,49.313 42.612,50.849 41.257,52.153 L41.257,52.153 Z M47.662,58.835 C45.997,57.089 44.713,55.753 43.129,54.106 C45.617,52.454 47.313,51.006 47.662,50.701 C48.014,51.006 49.71,52.454 52.198,54.106 C50.61,55.753 49.329,57.089 47.662,58.835 L47.662,58.835 Z M49.991,47.488 C50.85,46.34 51.896,44.936 53.072,43.358 C54.047,44.225 55.035,45.25 55.966,46.406 C55.067,48.586 54.397,50.549 54.071,52.153 C52.715,50.849 51.349,49.313 49.991,47.488 L49.991,47.488 Z M59.339,56.14 C57.843,55.298 56.311,54.204 54.758,52.805 C55.89,51.63 56.98,50.509 58.028,49.43 C59.156,51.483 59.993,53.846 60.216,56.543 C59.927,56.421 59.632,56.279 59.339,56.14 L59.339,56.14 Z M60.8,56.789 C60.6,53.814 59.687,51.232 58.435,49.01 C61.851,45.501 64.829,42.485 67.418,39.898 C67.811,40.051 68.204,40.202 68.594,40.379 C63.606,48.184 61.337,55.418 60.921,56.831 C60.881,56.816 60.842,56.804 60.8,56.789 L60.8,56.789 Z M74.585,44.544 C77.91,47.974 79.258,50.928 78.591,53.326 C77.717,56.476 73.576,57.605 73.535,57.617 C73.459,57.652 70.602,58.92 65.898,58.205 C66.739,55.807 71.551,51.506 71.551,51.506 C69.214,52.319 65.043,56.628 63.936,57.803 C63.613,57.722 63.271,57.617 62.938,57.518 C65.088,51.226 67.757,45.838 70.487,41.337 C71.94,42.188 73.324,43.244 74.585,44.544 L74.585,44.544 Z M68.914,39.895 C68.563,39.734 68.206,39.604 67.85,39.463 C69.658,37.661 71.288,36.055 72.732,34.653 C71.311,36.384 70.051,38.148 68.914,39.895 L68.914,39.895 Z" id="Shape"></path>
            </g>
        </g>
    </g>
</svg>
