<?xml version="1.0" encoding="utf-8"?>
<!-- Generator: Adobe Illustrator 18.1.1, SVG Export Plug-In . SVG Version: 6.00 Build 0)  -->
<svg version="1.1" id="Layer_1" xmlns="http://www.w3.org/2000/svg" xmlns:xlink="http://www.w3.org/1999/xlink" x="0px" y="0px"
	 viewBox="1104.548 1278.536 71.999 72" enable-background="new 1104.548 1278.536 71.999 72" xml:space="preserve">
<g>
	<path id="linkedin-circle-icon_2_" fill="#0375B6" d="M1140.547,1278.536c-19.882,0-35.999,16.117-35.999,36s16.117,36,35.999,36
		c19.883,0,36-16.117,36-36S1160.43,1278.536,1140.547,1278.536z M1130.943,1331.94h-7.904v-25.536h7.904V1331.94z
		 M1126.952,1303.06c-2.581,0-4.674-2.11-4.674-4.712c0-2.603,2.093-4.712,4.674-4.712c2.582,0,4.675,2.109,4.675,4.712
		C1131.627,1300.95,1129.534,1303.06,1126.952,1303.06z M1160.564,1331.94h-7.866c0,0,0-9.728,0-13.404
		c0-3.677-1.396-5.729-4.304-5.729c-3.163,0-4.816,2.138-4.816,5.729c0,3.933,0,13.404,0,13.404h-7.581v-25.536h7.581v3.439
		c0,0,2.28-4.219,7.695-4.219c5.415,0,9.291,3.307,9.291,10.146S1160.564,1331.94,1160.564,1331.94z"/>
</g>
</svg>
