<svg xmlns="http://www.w3.org/2000/svg" xmlns:xlink="http://www.w3.org/1999/xlink" version="1.1" id="Layer_1" x="0px" y="0px" viewBox="-771.157 -128.663 72 72" enable-background="new -771.157 -128.663 72 72" xml:space="preserve"><g><path id="pinterest-circle-icon_2_" d="M-735.157-128.663c-19.882 0-36 16.117-36 36c0 19.9 16.1 36 36 36 c19.882 0 36-16.117 36-36C-699.157-112.545-715.275-128.663-735.157-128.663z M-730.434-80.813c-2.814 0-5.459-1.521-6.364-3.247 c0 0-1.514 6.003-1.833 7.161c-1.128 4.094-4.446 8.191-4.704 8.526c-0.18 0.233-0.576 0.16-0.618-0.149 c-0.072-0.521-0.918-5.688 0.078-9.9c0.499-2.116 3.351-14.197 3.351-14.197s-0.831-1.664-0.831-4.123 c0-3.861 2.238-6.744 5.025-6.744c2.369 0 3.5 1.8 3.5 3.912c0 2.382-1.517 5.944-2.301 9.2 c-0.653 2.8 1.4 5 4.1 5.019c4.936 0 8.261-6.341 8.261-13.853c0-5.71-3.845-9.985-10.841-9.985 c-7.901 0-12.828 5.895-12.828 12.479c0 2.3 0.7 3.9 1.7 5.11c0.482 0.6 0.6 0.8 0.4 1.5 c-0.127 0.479-0.412 1.634-0.532 2.091c-0.173 0.66-0.708 0.895-1.305 0.651c-3.639-1.485-5.335-5.472-5.335-9.953 c0-7.401 6.242-16.276 18.62-16.276c9.949 0 16.5 7.2 16.5 14.926C-716.376-88.449-722.058-80.813-730.434-80.813z"/></g></svg>