<?xml version="1.0" encoding="utf-8"?>
<!-- Generator: Adobe Illustrator 18.1.1, SVG Export Plug-In . SVG Version: 6.00 Build 0)  -->
<svg version="1.1" id="Layer_1" xmlns="http://www.w3.org/2000/svg" xmlns:xlink="http://www.w3.org/1999/xlink" x="0px" y="0px"
	 viewBox="912.136 1225.93 72.367 72.367" enable-background="new 912.136 1225.93 72.367 72.367" xml:space="preserve">
<g>
	<path id="google-plus-circle-icon_2_" fill="#D03E61" d="M951.297,1275.227c0,3.556-2.888,6.334-8.867,6.334
		c-4.677,0-8.054-2.96-8.054-6.517c0-3.484,3.963-6.491,8.639-6.439C948.204,1268.605,951.297,1271.837,951.297,1275.227z
		 M984.503,1262.113c0,19.983-16.2,36.184-36.183,36.184c-19.984,0-36.184-16.2-36.184-36.184c0-19.984,16.199-36.184,36.184-36.184
		C968.303,1225.93,984.503,1242.129,984.503,1262.113z M955.326,1274.812c0-3.282-1.226-5.427-4.935-8.206
		c-3.763-2.743-4.682-4.293-1.091-7.069c2.023-1.564,3.44-3.65,3.44-6.225c0-2.805-1.146-5.35-3.304-6.586h3.058l2.602-2.73
		c0,0-9.81,0-11.646,0c-7.27,0-10.835,4.356-10.835,9.15c0,4.898,3.36,8.757,9.923,8.757c-1.018,2.054-0.609,3.951,1.056,5.308
		c-11.208,0-13.607,4.918-13.607,8.706c0,4.909,5.643,7.827,12.408,7.827C951.649,1283.744,955.326,1278.842,955.326,1274.812z
		 M970.514,1249.906h-5.373v-5.373h-2.686v5.373h-5.372v2.686h5.372v5.373h2.686v-5.373h5.373V1249.906z M948.062,1253.488
		c-0.542-4.122-3.227-7.504-6.365-7.599c-3.139-0.093-5.244,3.062-4.701,7.185c0.542,4.122,3.525,7,6.664,7.096
		C946.797,1260.264,948.603,1257.61,948.062,1253.488z"/>
</g>
</svg>
