<?xml version="1.0" encoding="utf-8"?>
<!-- Generator: Adobe Illustrator 18.1.1, SVG Export Plug-In . SVG Version: 6.00 Build 0)  -->
<svg version="1.1" id="Layer_1" xmlns="http://www.w3.org/2000/svg" xmlns:xlink="http://www.w3.org/1999/xlink" x="0px" y="0px"
	 viewBox="0 1128.547 72 72" enable-background="new 0 1128.547 72 72" xml:space="preserve">
<g>
	<path id="facebook-circle-icon_2_" fill="#3B5998" d="M36,1128.547c-19.883,0-36,16.117-36,36s16.117,36,36,36
		c19.882,0,36-16.117,36-36S55.882,1128.547,36,1128.547z M46.655,1149.725c0,0-3.602,0-5.031,0c-1.776,0-2.146,0.728-2.146,2.565
		c0,1.529,0,4.439,0,4.439h7.178l-0.691,7.794h-6.486v23.282h-9.297v-23.184h-4.835v-7.893h4.835c0,0,0-1.135,0-6.215
		c0-5.833,3.119-8.879,10.037-8.879c1.133,0,6.438,0,6.438,0V1149.725L46.655,1149.725z"/>
</g>
</svg>
